<?xml version="1.0" standalone="no"?>
<!DOCTYPE svg PUBLIC "-//W3C//DTD SVG 20010904//EN"
 "http://www.w3.org/TR/2001/REC-SVG-20010904/DTD/svg10.dtd">
<svg version="1.0" xmlns="http://www.w3.org/2000/svg"
 width="200.000000pt" height="200.000000pt" viewBox="0 0 200.000000 200.000000"
 preserveAspectRatio="xMidYMid meet">

<g transform="translate(0.000000,200.000000) scale(0.100000,-0.100000)"
fill="#000000" stroke="none">
<path d="M943 1548 l-53 -21 2 -61 1 -61 6 55 c7 61 20 57 17 -5 -2 -38 7 -70
42 -143 13 -29 13 -35 1 -43 -10 -6 -17 -2 -23 14 -6 12 -11 23 -12 25 0 1
-22 -6 -47 -17 -42 -18 -47 -18 -68 -3 -15 10 -24 12 -26 5 -2 -6 -13 -9 -23
-6 -14 4 -20 0 -20 -10 0 -13 -6 -14 -52 -1 -67 18 -214 34 -250 27 l-27 -5
55 -72 c30 -40 54 -76 54 -81 0 -4 -25 -36 -55 -70 l-54 -62 97 -5 c101 -6
232 -34 232 -50 0 -9 243 -128 264 -128 23 0 256 114 256 126 0 17 125 45 235
53 l95 6 -55 62 c-30 33 -55 64 -55 68 0 3 25 38 55 78 46 61 51 73 37 79 -24
9 -143 -1 -231 -19 -55 -12 -75 -13 -80 -4 -4 6 -15 9 -24 5 -10 -3 -17 -1
-17 5 0 8 -9 7 -27 -3 -23 -12 -32 -12 -53 -1 -14 7 -35 16 -47 19 -20 6 -23
4 -23 -18 0 -28 -9 -33 -27 -15 -8 8 -3 29 18 76 18 40 29 82 29 109 0 30 5
46 15 50 26 10 17 21 -36 43 -62 25 -60 25 -126 -1z m-278 -276 l70 -17 3
-139 c2 -129 1 -138 -15 -131 -38 15 -168 35 -225 35 l-59 0 52 60 52 60 -39
56 c-21 30 -45 64 -53 75 -13 18 -11 19 65 18 44 0 111 -8 149 -17z m895 13
c0 -3 -23 -37 -51 -75 l-51 -70 53 -58 52 -57 -89 -6 c-77 -6 -124 -14 -196
-35 -17 -5 -18 6 -18 130 l0 135 38 11 c83 24 262 41 262 25z"/>
<path d="M560 606 c0 -110 1 -116 20 -116 20 0 21 5 18 112 -3 98 -5 113 -20
116 -16 3 -18 -7 -18 -112z"/>
<path d="M630 606 c0 -111 1 -116 21 -116 20 0 21 4 17 65 -3 56 -2 62 8 43 6
-13 18 -42 25 -65 8 -31 18 -43 31 -43 16 0 18 10 18 116 0 105 -2 115 -17
112 -15 -3 -18 -15 -18 -70 0 -36 -1 -66 -2 -65 -1 1 -12 31 -26 67 -14 39
-31 66 -40 68 -15 3 -17 -10 -17 -112z"/>
<path d="M790 606 c0 -96 3 -116 15 -116 11 0 15 12 15 50 0 43 3 50 20 50 11
0 20 7 20 15 0 8 -9 15 -20 15 -16 0 -20 7 -20 35 0 32 2 35 31 35 47 0 30 24
-19 28 l-42 3 0 -115z"/>
<path d="M915 706 c-24 -17 -34 -140 -15 -185 24 -58 93 -42 106 24 11 60 0
146 -21 161 -24 18 -46 18 -70 0z m50 -107 c0 -68 -3 -84 -15 -84 -12 0 -16
16 -18 74 -3 82 2 105 21 98 8 -2 12 -29 12 -88z"/>
<path d="M1040 605 l0 -115 43 0 c24 0 48 5 55 12 17 17 15 87 -3 94 -13 5
-13 8 0 27 33 46 1 97 -60 97 l-35 0 0 -115z m65 50 c0 -16 -6 -30 -12 -32 -9
-3 -13 7 -13 32 0 25 4 35 13 33 6 -3 12 -17 12 -33z m3 -102 c-4 -52 -28 -56
-28 -4 0 30 4 41 16 41 11 0 14 -9 12 -37z"/>
<path d="M1180 605 l0 -115 45 0 c57 0 70 21 70 118 0 66 -3 76 -24 93 -13 10
-38 19 -57 19 l-34 0 0 -115z m74 69 c3 -9 6 -42 6 -74 0 -67 -7 -90 -26 -90
-11 0 -14 20 -14 90 0 70 3 90 14 90 8 0 17 -7 20 -16z"/>
<path d="M1327 714 c-4 -4 -7 -56 -7 -116 0 -101 1 -108 20 -108 18 0 20 7 21
63 l0 62 23 -60 c13 -35 30 -61 39 -63 15 -3 17 10 17 112 0 96 -3 116 -15
116 -12 0 -15 -15 -16 -72 l0 -73 -27 69 c-26 67 -40 84 -55 70z"/>
</g>
</svg>
